<?xml version="1.0" encoding="UTF-8" standalone="no"?>
<!DOCTYPE svg PUBLIC "-//W3C//DTD SVG 1.1//EN"
 "http://www.w3.org/Graphics/SVG/1.1/DTD/svg11.dtd">
<!-- Generated by graphviz version 5.0.0 (20220707.1540)
 -->
<!-- Title: UmlClassDiagram Pages: 1 -->
<svg width="5264pt" height="1469pt"
 viewBox="0.00 0.00 5264.41 1468.80" xmlns="http://www.w3.org/2000/svg" xmlns:xlink="http://www.w3.org/1999/xlink">
<g id="graph0" class="graph" transform="scale(1 1) rotate(0) translate(4 1464.8)">
<title>UmlClassDiagram</title>
<polygon fill="white" stroke="transparent" points="-4,4 -4,-1464.8 5260.41,-1464.8 5260.41,4 -4,4"/>
<!-- 1 -->
<g id="node1" class="node">
<title>1</title>
<polygon fill="#f2f2f2" stroke="black" points="1717.22,-1206.1 1717.22,-1339.7 1927.24,-1339.7 1927.24,-1206.1 1717.22,-1206.1"/>
<text text-anchor="middle" x="1822.23" y="-1323.1" font-family="Times,serif" font-size="14.00">&lt;&lt;Struct&gt;&gt;</text>
<text text-anchor="middle" x="1822.23" y="-1306.3" font-family="Times,serif" font-size="14.00">CourseLearningOutcome</text>
<text text-anchor="middle" x="1822.23" y="-1289.5" font-family="Times,serif" font-size="14.00">RecordChaincontractsConstant.sol</text>
<polyline fill="none" stroke="black" points="1717.22,-1281.3 1927.24,-1281.3 "/>
<text text-anchor="start" x="1725.22" y="-1264.7" font-family="Times,serif" font-size="14.00">name: string</text>
<text text-anchor="start" x="1725.22" y="-1247.9" font-family="Times,serif" font-size="14.00">weight: uint256</text>
<text text-anchor="start" x="1725.22" y="-1231.1" font-family="Times,serif" font-size="14.00">score: uint256</text>
<text text-anchor="start" x="1725.22" y="-1214.3" font-family="Times,serif" font-size="14.00">credits: uint256</text>
</g>
<!-- 0 -->
<g id="node2" class="node">
<title>0</title>
<polygon fill="#f2f2f2" stroke="black" points="1869.22,-1401.9 1869.22,-1460.3 2079.24,-1460.3 2079.24,-1401.9 1869.22,-1401.9"/>
<text text-anchor="middle" x="1974.23" y="-1443.7" font-family="Times,serif" font-size="14.00">&lt;&lt;Library&gt;&gt;</text>
<text text-anchor="middle" x="1974.23" y="-1426.9" font-family="Times,serif" font-size="14.00">Constant</text>
<text text-anchor="middle" x="1974.23" y="-1410.1" font-family="Times,serif" font-size="14.00">RecordChaincontractsConstant.sol</text>
</g>
<!-- 1&#45;&gt;0 -->
<g id="edge1" class="edge">
<title>1&#45;&gt;0</title>
<path fill="none" stroke="black" d="M1886.69,-1340.14C1904.28,-1358.21 1922.71,-1377.15 1938.1,-1392.97"/>
<polygon fill="black" stroke="black" points="1938.41,-1393.29 1945.46,-1394.8 1946.77,-1401.89 1939.72,-1400.38 1938.41,-1393.29"/>
</g>
<!-- 2 -->
<g id="node3" class="node">
<title>2</title>
<polygon fill="#f2f2f2" stroke="black" points="4039.76,-725.1 4039.76,-933.9 4524.7,-933.9 4524.7,-725.1 4039.76,-725.1"/>
<text text-anchor="middle" x="4282.23" y="-917.3" font-family="Times,serif" font-size="14.00">Ownable</text>
<text text-anchor="middle" x="4282.23" y="-900.5" font-family="Times,serif" font-size="14.00">RecordChaincontractsOwnable.sol</text>
<polyline fill="none" stroke="black" points="4039.76,-892.3 4524.7,-892.3 "/>
<text text-anchor="start" x="4047.76" y="-875.7" font-family="Times,serif" font-size="14.00">Public:</text>
<text text-anchor="start" x="4047.76" y="-858.9" font-family="Times,serif" font-size="14.00"> &#160;&#160;owner: address</text>
<polyline fill="none" stroke="black" points="4039.76,-850.7 4524.7,-850.7 "/>
<text text-anchor="start" x="4047.76" y="-834.1" font-family="Times,serif" font-size="14.00">Public:</text>
<text text-anchor="start" x="4047.76" y="-817.3" font-family="Times,serif" font-size="14.00"> &#160;&#160;&#160;&lt;&lt;event&gt;&gt; OwnershipRenounced(previousOwner: address)</text>
<text text-anchor="start" x="4047.76" y="-800.5" font-family="Times,serif" font-size="14.00"> &#160;&#160;&#160;&lt;&lt;event&gt;&gt; OwnershipTransferred(previousOwner: address, newOwner: address)</text>
<text text-anchor="start" x="4047.76" y="-783.7" font-family="Times,serif" font-size="14.00"> &#160;&#160;&#160;&lt;&lt;modifier&gt;&gt; onlyOwner()</text>
<text text-anchor="start" x="4047.76" y="-766.9" font-family="Times,serif" font-size="14.00"> &#160;&#160;&#160;constructor()</text>
<text text-anchor="start" x="4047.76" y="-750.1" font-family="Times,serif" font-size="14.00"> &#160;&#160;&#160;transferOwnership(newOwner: address) &lt;&lt;onlyOwner&gt;&gt;</text>
<text text-anchor="start" x="4047.76" y="-733.3" font-family="Times,serif" font-size="14.00"> &#160;&#160;&#160;renounceOwnership() &lt;&lt;onlyOwner&gt;&gt;</text>
</g>
<!-- 3 -->
<g id="node4" class="node">
<title>3</title>
<polygon fill="#f2f2f2" stroke="black" points="0,-109.7 0,-368.9 1552.46,-368.9 1552.46,-109.7 0,-109.7"/>
<text text-anchor="middle" x="776.23" y="-352.3" font-family="Times,serif" font-size="14.00">RecordChainCertificate</text>
<text text-anchor="middle" x="776.23" y="-335.5" font-family="Times,serif" font-size="14.00">RecordChaincontractsRecordChainCertificate.sol</text>
<polyline fill="none" stroke="black" points="0,-327.3 1552.46,-327.3 "/>
<text text-anchor="start" x="8" y="-310.7" font-family="Times,serif" font-size="14.00">Private:</text>
<text text-anchor="start" x="8" y="-293.9" font-family="Times,serif" font-size="14.00"> &#160;&#160;certificateId: bytes32[]</text>
<text text-anchor="start" x="8" y="-277.1" font-family="Times,serif" font-size="14.00">Public:</text>
<text text-anchor="start" x="8" y="-260.3" font-family="Times,serif" font-size="14.00"> &#160;&#160;recordChain: RecordChainStorage</text>
<polyline fill="none" stroke="black" points="0,-252.1 1552.46,-252.1 "/>
<text text-anchor="start" x="8" y="-235.5" font-family="Times,serif" font-size="14.00">Public:</text>
<text text-anchor="start" x="8" y="-218.7" font-family="Times,serif" font-size="14.00"> &#160;&#160;&#160;&lt;&lt;event&gt;&gt; NewCertificate(certificateId: bytes32, candidateAddress: address, issuerAddress: address)</text>
<text text-anchor="start" x="8" y="-201.9" font-family="Times,serif" font-size="14.00"> &#160;&#160;&#160;&lt;&lt;modifier&gt;&gt; isUser(role: string)</text>
<text text-anchor="start" x="8" y="-185.1" font-family="Times,serif" font-size="14.00"> &#160;&#160;&#160;constructor(_recordChainAddress: address)</text>
<text text-anchor="start" x="8" y="-168.3" font-family="Times,serif" font-size="14.00"> &#160;&#160;&#160;issueCertificate(_candidateAddress: address, _courseId: bytes32, _score: uint256[]): bool &lt;&lt;isUser&gt;&gt;</text>
<text text-anchor="start" x="8" y="-151.5" font-family="Times,serif" font-size="14.00"> &#160;&#160;&#160;getCertificateLearner(): (certId: bytes32[], candidateAddress: address[], courseName: string[], institute: string[], issuanceTime: uint256[]) &lt;&lt;isUser&gt;&gt;</text>
<text text-anchor="start" x="8" y="-134.7" font-family="Times,serif" font-size="14.00"> &#160;&#160;&#160;getCertificateId(_certificateId: bytes32): (certId: bytes32, candidateAddress: address, candidateName: string, issuerAddress: address, issuerName: string, courseName: string, institute: string, learningOutcomes: Constant.CourseLearningOutcome[], issuanceTime: uint256)</text>
<text text-anchor="start" x="8" y="-117.9" font-family="Times,serif" font-size="14.00"> &#160;&#160;&#160;proofCertificate(_certificateId: bytes32, _learner: address): bool</text>
</g>
<!-- 3&#45;&gt;0 -->
<g id="edge3" class="edge">
<title>3&#45;&gt;0</title>
<path fill="none" stroke="black" stroke-dasharray="5,2" d="M1026.51,-368.92C1298.37,-522.82 1722.36,-807.19 1936.23,-1180.4 1974.58,-1247.32 1978.17,-1340.15 1976.66,-1391.7"/>
<polygon fill="black" stroke="black" points="1973.16,-1391.62 1976.29,-1401.75 1980.16,-1391.88 1973.16,-1391.62"/>
</g>
<!-- 5 -->
<g id="node12" class="node">
<title>5</title>
<polygon fill="#f2f2f2" stroke="black" points="2258.68,-515.1 2258.68,-1143.9 3829.78,-1143.9 3829.78,-515.1 2258.68,-515.1"/>
<text text-anchor="middle" x="3044.23" y="-1127.3" font-family="Times,serif" font-size="14.00">RecordChainStorage</text>
<text text-anchor="middle" x="3044.23" y="-1110.5" font-family="Times,serif" font-size="14.00">RecordChaincontractsRecordChainStorage.sol</text>
<polyline fill="none" stroke="black" points="2258.68,-1102.3 3829.78,-1102.3 "/>
<text text-anchor="start" x="2266.68" y="-1085.7" font-family="Times,serif" font-size="14.00">Private:</text>
<text text-anchor="start" x="2266.68" y="-1068.9" font-family="Times,serif" font-size="14.00"> &#160;&#160;userDetails: mapping(address=&gt;User)</text>
<text text-anchor="start" x="2266.68" y="-1052.1" font-family="Times,serif" font-size="14.00"> &#160;&#160;courseDetails: mapping(bytes32=&gt;Course)</text>
<text text-anchor="start" x="2266.68" y="-1035.3" font-family="Times,serif" font-size="14.00"> &#160;&#160;certificateCourse: mapping(bytes32=&gt;Certificate)</text>
<text text-anchor="start" x="2266.68" y="-1018.5" font-family="Times,serif" font-size="14.00"> &#160;&#160;transactionCourse: mapping(bytes32=&gt;address)</text>
<text text-anchor="start" x="2266.68" y="-1001.7" font-family="Times,serif" font-size="14.00"> &#160;&#160;instituteDetails: mapping(bytes32=&gt;Institute)</text>
<text text-anchor="start" x="2266.68" y="-984.9" font-family="Times,serif" font-size="14.00"> &#160;&#160;learnerDetails: mapping(address=&gt;Learner)</text>
<text text-anchor="start" x="2266.68" y="-968.1" font-family="Times,serif" font-size="14.00"> &#160;&#160;trainerDetails: mapping(address=&gt;Trainer)</text>
<polyline fill="none" stroke="black" points="2258.68,-959.9 3829.78,-959.9 "/>
<text text-anchor="start" x="2266.68" y="-943.3" font-family="Times,serif" font-size="14.00">Public:</text>
<text text-anchor="start" x="2266.68" y="-926.5" font-family="Times,serif" font-size="14.00"> &#160;&#160;&#160;&lt;&lt;payable&gt;&gt; setTransaction(_transactionAddress: address, _transactionId: bytes32, _courseId: bytes32, _sender: address): bool</text>
<text text-anchor="start" x="2266.68" y="-909.7" font-family="Times,serif" font-size="14.00"> &#160;&#160;&#160;setUser(_userAddress: address, _name: string, _phone: string, _role: bytes32): bool</text>
<text text-anchor="start" x="2266.68" y="-892.9" font-family="Times,serif" font-size="14.00"> &#160;&#160;&#160;getUser(_userAddress: address): (name: string, phone: string, role: bytes32)</text>
<text text-anchor="start" x="2266.68" y="-876.1" font-family="Times,serif" font-size="14.00"> &#160;&#160;&#160;getUserRole(_userAddress: address): bytes32</text>
<text text-anchor="start" x="2266.68" y="-859.3" font-family="Times,serif" font-size="14.00"> &#160;&#160;&#160;setInstitute(_instituteId: bytes32, _name: string, _category: string): bool</text>
<text text-anchor="start" x="2266.68" y="-842.5" font-family="Times,serif" font-size="14.00"> &#160;&#160;&#160;getInstitute(_instituteIds: bytes32[]): (string[], string[])</text>
<text text-anchor="start" x="2266.68" y="-825.7" font-family="Times,serif" font-size="14.00"> &#160;&#160;&#160;getInstituteById(_instituteId: bytes32): (name: string, category: string, trainer: address[])</text>
<text text-anchor="start" x="2266.68" y="-808.9" font-family="Times,serif" font-size="14.00"> &#160;&#160;&#160;setTrainer(_instituteId: bytes32, _userAddress: address): bool</text>
<text text-anchor="start" x="2266.68" y="-792.1" font-family="Times,serif" font-size="14.00"> &#160;&#160;&#160;getTrainer(_trainerAddress: address): (institute: string, courseId: bytes32[], transactionId: bytes32[])</text>
<text text-anchor="start" x="2266.68" y="-775.3" font-family="Times,serif" font-size="14.00"> &#160;&#160;&#160;checkTrainer(_instituteId: bytes32, _userAddress: address): bool</text>
<text text-anchor="start" x="2266.68" y="-758.5" font-family="Times,serif" font-size="14.00"> &#160;&#160;&#160;getLearner(_learnerAddress: address): (courseId: bytes32[], transactionId: bytes32[], certificateId: bytes32[])</text>
<text text-anchor="start" x="2266.68" y="-741.7" font-family="Times,serif" font-size="14.00"> &#160;&#160;&#160;setCourse(_courseId: bytes32, _trainer: address, _name: string, _price: uint256, _isActive: bool, learningOutcome: Constant.CourseLearningOutcome[]): bool</text>
<text text-anchor="start" x="2266.68" y="-724.9" font-family="Times,serif" font-size="14.00"> &#160;&#160;&#160;updateCourse(_courseId: bytes32, _isActive: bool): bool</text>
<text text-anchor="start" x="2266.68" y="-708.1" font-family="Times,serif" font-size="14.00"> &#160;&#160;&#160;getCourse(_courseIds: bytes32[]): (address[], string[], string[], string[], uint256[], bool[])</text>
<text text-anchor="start" x="2266.68" y="-691.3" font-family="Times,serif" font-size="14.00"> &#160;&#160;&#160;getCourseById(_courseId: bytes32): (trainer: address, name: string, institute: string, instructor: string, price: uint256, isActive: bool, learningOutcomes: Constant.CourseLearningOutcome[])</text>
<text text-anchor="start" x="2266.68" y="-674.5" font-family="Times,serif" font-size="14.00"> &#160;&#160;&#160;getCourseByTrainer(_trainer: address): (bytes32[], string[], string[], string[], uint256[], bool[])</text>
<text text-anchor="start" x="2266.68" y="-657.7" font-family="Times,serif" font-size="14.00"> &#160;&#160;&#160;getCourseByLearner(_learner: address): (bytes32[], string[], string[], string[], uint256[], bool[])</text>
<text text-anchor="start" x="2266.68" y="-640.9" font-family="Times,serif" font-size="14.00"> &#160;&#160;&#160;countCourseByLearner(_learner: address): uint256</text>
<text text-anchor="start" x="2266.68" y="-624.1" font-family="Times,serif" font-size="14.00"> &#160;&#160;&#160;getTransaction(_transactionId: bytes32[]): address[]</text>
<text text-anchor="start" x="2266.68" y="-607.3" font-family="Times,serif" font-size="14.00"> &#160;&#160;&#160;getTransactionByTrainer(_trainer: address): address[]</text>
<text text-anchor="start" x="2266.68" y="-590.5" font-family="Times,serif" font-size="14.00"> &#160;&#160;&#160;getTransactionByLearner(_learner: address): address[]</text>
<text text-anchor="start" x="2266.68" y="-573.7" font-family="Times,serif" font-size="14.00"> &#160;&#160;&#160;setCertificate(_certId: bytes32, _candidateAddress: address, _courseId: bytes32, _score: uint256[], _issuanceTime: uint256): bool</text>
<text text-anchor="start" x="2266.68" y="-556.9" font-family="Times,serif" font-size="14.00"> &#160;&#160;&#160;generateCertificate(_certificateId: bytes32): (certId: bytes32, candidateAddress: address, candidateName: string, issuerAddress: address, issuerName: string, courseName: string, institute: string, learningOutcomes: Constant.CourseLearningOutcome[], issuanceTime: uint256)</text>
<text text-anchor="start" x="2266.68" y="-540.1" font-family="Times,serif" font-size="14.00"> &#160;&#160;&#160;getCertificateByLearner(_learner: address): (bytes32[], address[], string[], string[], uint256[])</text>
<text text-anchor="start" x="2266.68" y="-523.3" font-family="Times,serif" font-size="14.00"> &#160;&#160;&#160;checkCertificate(_certificateId: bytes32, _learner: address): bool</text>
</g>
<!-- 3&#45;&gt;5 -->
<g id="edge2" class="edge">
<title>3&#45;&gt;5</title>
<path fill="none" stroke="black" d="M1144.12,-368.96C1274.69,-410.04 1423.64,-451.76 1562.23,-478.6 1740.51,-513.13 1790.77,-480.99 1969.23,-514.6 2060.46,-531.78 2155.05,-553.48 2248.59,-577.4"/>
<polygon fill="black" stroke="black" points="2247.96,-580.85 2258.51,-579.95 2249.7,-574.07 2247.96,-580.85"/>
</g>
<!-- 4 -->
<g id="node5" class="node">
<title>4</title>
<polygon fill="#f2f2f2" stroke="black" points="1570.9,-76.1 1570.9,-402.5 2647.56,-402.5 2647.56,-76.1 1570.9,-76.1"/>
<text text-anchor="middle" x="2109.23" y="-385.9" font-family="Times,serif" font-size="14.00">RecordChainCourse</text>
<text text-anchor="middle" x="2109.23" y="-369.1" font-family="Times,serif" font-size="14.00">RecordChaincontractsRecordChainCourse.sol</text>
<polyline fill="none" stroke="black" points="1570.9,-360.9 2647.56,-360.9 "/>
<text text-anchor="start" x="1578.9" y="-344.3" font-family="Times,serif" font-size="14.00">Private:</text>
<text text-anchor="start" x="1578.9" y="-327.5" font-family="Times,serif" font-size="14.00"> &#160;&#160;courseId: bytes32[]</text>
<text text-anchor="start" x="1578.9" y="-310.7" font-family="Times,serif" font-size="14.00">Public:</text>
<text text-anchor="start" x="1578.9" y="-293.9" font-family="Times,serif" font-size="14.00"> &#160;&#160;recordChain: RecordChainStorage</text>
<polyline fill="none" stroke="black" points="1570.9,-285.7 2647.56,-285.7 "/>
<text text-anchor="start" x="1578.9" y="-269.1" font-family="Times,serif" font-size="14.00">External:</text>
<text text-anchor="start" x="1578.9" y="-252.3" font-family="Times,serif" font-size="14.00"> &#160;&#160;&#160;createCourse(_name: string, _price: uint256, learningOutcome: Constant.CourseLearningOutcome[]): bool &lt;&lt;isUser&gt;&gt;</text>
<text text-anchor="start" x="1578.9" y="-235.5" font-family="Times,serif" font-size="14.00">Public:</text>
<text text-anchor="start" x="1578.9" y="-218.7" font-family="Times,serif" font-size="14.00"> &#160;&#160;&#160;&lt;&lt;event&gt;&gt; UpdateCourse(courseId: bytes32, trainer: address, isActive: bool)</text>
<text text-anchor="start" x="1578.9" y="-201.9" font-family="Times,serif" font-size="14.00"> &#160;&#160;&#160;&lt;&lt;modifier&gt;&gt; isUser(role: string)</text>
<text text-anchor="start" x="1578.9" y="-185.1" font-family="Times,serif" font-size="14.00"> &#160;&#160;&#160;constructor(_recordChainAddress: address)</text>
<text text-anchor="start" x="1578.9" y="-168.3" font-family="Times,serif" font-size="14.00"> &#160;&#160;&#160;getCourseIds(): bytes32[]</text>
<text text-anchor="start" x="1578.9" y="-151.5" font-family="Times,serif" font-size="14.00"> &#160;&#160;&#160;updateCourse(_courseId: bytes32, _isActive: bool): bool &lt;&lt;isUser&gt;&gt;</text>
<text text-anchor="start" x="1578.9" y="-134.7" font-family="Times,serif" font-size="14.00"> &#160;&#160;&#160;getAllCourse(): (bytes32[], address[], string[], string[], string[], uint256[], bool[])</text>
<text text-anchor="start" x="1578.9" y="-117.9" font-family="Times,serif" font-size="14.00"> &#160;&#160;&#160;getCourseId(_courseId: bytes32): (trainer: address, name: string, institute: string, instructor: string, price: uint256, isActive: bool, learningOutcomes: Constant.CourseLearningOutcome[])</text>
<text text-anchor="start" x="1578.9" y="-101.1" font-family="Times,serif" font-size="14.00"> &#160;&#160;&#160;getCourseTrainer(): (id: bytes32[], name: string[], institute: string[], instructor: string[], price: uint256[], isActive: bool[]) &lt;&lt;isUser&gt;&gt;</text>
<text text-anchor="start" x="1578.9" y="-84.3" font-family="Times,serif" font-size="14.00"> &#160;&#160;&#160;getCourseLearner(): (id: bytes32[], name: string[], institute: string[], instructor: string[], price: uint256[], isActive: bool[]) &lt;&lt;isUser&gt;&gt;</text>
</g>
<!-- 4&#45;&gt;0 -->
<g id="edge5" class="edge">
<title>4&#45;&gt;0</title>
<path fill="none" stroke="black" stroke-dasharray="5,2" d="M2090.81,-402.62C2059.07,-682.38 1995.8,-1239.99 1978.62,-1391.4"/>
<polygon fill="black" stroke="black" points="1975.11,-1391.26 1977.46,-1401.59 1982.07,-1392.05 1975.11,-1391.26"/>
</g>
<!-- 4&#45;&gt;5 -->
<g id="edge4" class="edge">
<title>4&#45;&gt;5</title>
<path fill="none" stroke="black" d="M2367.2,-402.59C2420.52,-436.13 2478.43,-472.56 2537.18,-509.52"/>
<polygon fill="black" stroke="black" points="2535.52,-512.61 2545.85,-514.97 2539.25,-506.69 2535.52,-512.61"/>
</g>
<!-- 6 -->
<g id="node6" class="node">
<title>6</title>
<polygon fill="#f2f2f2" stroke="black" points="2020.79,-1214.5 2020.79,-1331.3 2297.67,-1331.3 2297.67,-1214.5 2020.79,-1214.5"/>
<text text-anchor="middle" x="2159.23" y="-1314.7" font-family="Times,serif" font-size="14.00">&lt;&lt;Struct&gt;&gt;</text>
<text text-anchor="middle" x="2159.23" y="-1297.9" font-family="Times,serif" font-size="14.00">User</text>
<text text-anchor="middle" x="2159.23" y="-1281.1" font-family="Times,serif" font-size="14.00">RecordChaincontractsRecordChainStorage.sol</text>
<polyline fill="none" stroke="black" points="2020.79,-1272.9 2297.67,-1272.9 "/>
<text text-anchor="start" x="2028.79" y="-1256.3" font-family="Times,serif" font-size="14.00">name: string</text>
<text text-anchor="start" x="2028.79" y="-1239.5" font-family="Times,serif" font-size="14.00">phone: string</text>
<text text-anchor="start" x="2028.79" y="-1222.7" font-family="Times,serif" font-size="14.00">role: bytes32</text>
</g>
<!-- 6&#45;&gt;5 -->
<g id="edge7" class="edge">
<title>6&#45;&gt;5</title>
<path fill="none" stroke="black" d="M2257.49,-1214.4C2276.78,-1202.75 2296.99,-1190.87 2316.23,-1180.4 2334.99,-1170.19 2354.1,-1159.96 2373.45,-1149.76"/>
<polygon fill="black" stroke="black" points="2373.6,-1149.68 2377.05,-1143.35 2384.22,-1144.1 2380.77,-1150.43 2373.6,-1149.68"/>
</g>
<!-- 7 -->
<g id="node7" class="node">
<title>7</title>
<polygon fill="#f2f2f2" stroke="black" points="2315.79,-1214.5 2315.79,-1331.3 2592.67,-1331.3 2592.67,-1214.5 2315.79,-1214.5"/>
<text text-anchor="middle" x="2454.23" y="-1314.7" font-family="Times,serif" font-size="14.00">&lt;&lt;Struct&gt;&gt;</text>
<text text-anchor="middle" x="2454.23" y="-1297.9" font-family="Times,serif" font-size="14.00">Institute</text>
<text text-anchor="middle" x="2454.23" y="-1281.1" font-family="Times,serif" font-size="14.00">RecordChaincontractsRecordChainStorage.sol</text>
<polyline fill="none" stroke="black" points="2315.79,-1272.9 2592.67,-1272.9 "/>
<text text-anchor="start" x="2323.79" y="-1256.3" font-family="Times,serif" font-size="14.00">name: string</text>
<text text-anchor="start" x="2323.79" y="-1239.5" font-family="Times,serif" font-size="14.00">category: string</text>
<text text-anchor="start" x="2323.79" y="-1222.7" font-family="Times,serif" font-size="14.00">trainer: address[]</text>
</g>
<!-- 7&#45;&gt;5 -->
<g id="edge8" class="edge">
<title>7&#45;&gt;5</title>
<path fill="none" stroke="black" d="M2535.7,-1214.48C2560.6,-1196.29 2589.86,-1174.74 2621.56,-1151.27"/>
<polygon fill="black" stroke="black" points="2621.82,-1151.07 2624.27,-1144.29 2631.47,-1143.93 2629.03,-1150.72 2621.82,-1151.07"/>
</g>
<!-- 8 -->
<g id="node8" class="node">
<title>8</title>
<polygon fill="#f2f2f2" stroke="black" points="2610.79,-1214.5 2610.79,-1331.3 2887.67,-1331.3 2887.67,-1214.5 2610.79,-1214.5"/>
<text text-anchor="middle" x="2749.23" y="-1314.7" font-family="Times,serif" font-size="14.00">&lt;&lt;Struct&gt;&gt;</text>
<text text-anchor="middle" x="2749.23" y="-1297.9" font-family="Times,serif" font-size="14.00">Learner</text>
<text text-anchor="middle" x="2749.23" y="-1281.1" font-family="Times,serif" font-size="14.00">RecordChaincontractsRecordChainStorage.sol</text>
<polyline fill="none" stroke="black" points="2610.79,-1272.9 2887.67,-1272.9 "/>
<text text-anchor="start" x="2618.79" y="-1256.3" font-family="Times,serif" font-size="14.00">courseId: bytes32[]</text>
<text text-anchor="start" x="2618.79" y="-1239.5" font-family="Times,serif" font-size="14.00">transactionId: bytes32[]</text>
<text text-anchor="start" x="2618.79" y="-1222.7" font-family="Times,serif" font-size="14.00">certificateId: bytes32[]</text>
</g>
<!-- 8&#45;&gt;5 -->
<g id="edge9" class="edge">
<title>8&#45;&gt;5</title>
<path fill="none" stroke="black" d="M2792.33,-1214.48C2804.57,-1196.99 2818.78,-1176.41 2834.08,-1154"/>
<polygon fill="black" stroke="black" points="2834.18,-1153.85 2834.26,-1146.64 2840.94,-1143.93 2840.87,-1151.14 2834.18,-1153.85"/>
</g>
<!-- 9 -->
<g id="node9" class="node">
<title>9</title>
<polygon fill="#f2f2f2" stroke="black" points="2905.79,-1214.5 2905.79,-1331.3 3182.67,-1331.3 3182.67,-1214.5 2905.79,-1214.5"/>
<text text-anchor="middle" x="3044.23" y="-1314.7" font-family="Times,serif" font-size="14.00">&lt;&lt;Struct&gt;&gt;</text>
<text text-anchor="middle" x="3044.23" y="-1297.9" font-family="Times,serif" font-size="14.00">Trainer</text>
<text text-anchor="middle" x="3044.23" y="-1281.1" font-family="Times,serif" font-size="14.00">RecordChaincontractsRecordChainStorage.sol</text>
<polyline fill="none" stroke="black" points="2905.79,-1272.9 3182.67,-1272.9 "/>
<text text-anchor="start" x="2913.79" y="-1256.3" font-family="Times,serif" font-size="14.00">institute: string</text>
<text text-anchor="start" x="2913.79" y="-1239.5" font-family="Times,serif" font-size="14.00">courseId: bytes32[]</text>
<text text-anchor="start" x="2913.79" y="-1222.7" font-family="Times,serif" font-size="14.00">transactionId: bytes32[]</text>
</g>
<!-- 9&#45;&gt;5 -->
<g id="edge10" class="edge">
<title>9&#45;&gt;5</title>
<path fill="none" stroke="black" d="M3048.95,-1214.48C3049.49,-1197.54 3049.93,-1177.69 3050.25,-1156.1"/>
<polygon fill="black" stroke="black" points="3050.25,-1155.93 3046.34,-1149.88 3050.42,-1143.93 3054.34,-1149.99 3050.25,-1155.93"/>
</g>
<!-- 10 -->
<g id="node10" class="node">
<title>10</title>
<polygon fill="#f2f2f2" stroke="black" points="3496.16,-1180.9 3496.16,-1364.9 3826.3,-1364.9 3826.3,-1180.9 3496.16,-1180.9"/>
<text text-anchor="middle" x="3661.23" y="-1348.3" font-family="Times,serif" font-size="14.00">&lt;&lt;Struct&gt;&gt;</text>
<text text-anchor="middle" x="3661.23" y="-1331.5" font-family="Times,serif" font-size="14.00">Course</text>
<text text-anchor="middle" x="3661.23" y="-1314.7" font-family="Times,serif" font-size="14.00">RecordChaincontractsRecordChainStorage.sol</text>
<polyline fill="none" stroke="black" points="3496.16,-1306.5 3826.3,-1306.5 "/>
<text text-anchor="start" x="3504.16" y="-1289.9" font-family="Times,serif" font-size="14.00">trainer: address</text>
<text text-anchor="start" x="3504.16" y="-1273.1" font-family="Times,serif" font-size="14.00">name: string</text>
<text text-anchor="start" x="3504.16" y="-1256.3" font-family="Times,serif" font-size="14.00">institute: string</text>
<text text-anchor="start" x="3504.16" y="-1239.5" font-family="Times,serif" font-size="14.00">instructor: string</text>
<text text-anchor="start" x="3504.16" y="-1222.7" font-family="Times,serif" font-size="14.00">price: uint256</text>
<text text-anchor="start" x="3504.16" y="-1205.9" font-family="Times,serif" font-size="14.00">isActive: bool</text>
<text text-anchor="start" x="3504.16" y="-1189.1" font-family="Times,serif" font-size="14.00">learningOutcomes: Constant.CourseLearningOutcome[]</text>
</g>
<!-- 10&#45;&gt;0 -->
<g id="edge6" class="edge">
<title>10&#45;&gt;0</title>
<path fill="none" stroke="black" stroke-dasharray="5,2" d="M3495.68,-1362.68C3492.53,-1363.65 3489.38,-1364.56 3486.23,-1365.4 3352.88,-1401.2 2419.16,-1421.83 2089.31,-1428.07"/>
<polygon fill="black" stroke="black" points="2089.18,-1424.57 2079.25,-1428.25 2089.32,-1431.57 2089.18,-1424.57"/>
</g>
<!-- 10&#45;&gt;5 -->
<g id="edge11" class="edge">
<title>10&#45;&gt;5</title>
<path fill="none" stroke="black" d="M3539.45,-1180.78C3526.45,-1171.34 3512.74,-1161.42 3498.49,-1151.12"/>
<polygon fill="black" stroke="black" points="3498.27,-1150.96 3491.06,-1150.69 3488.54,-1143.93 3495.75,-1144.2 3498.27,-1150.96"/>
</g>
<!-- 11 -->
<g id="node11" class="node">
<title>11</title>
<polygon fill="#f2f2f2" stroke="black" points="3200.79,-1206.1 3200.79,-1339.7 3477.67,-1339.7 3477.67,-1206.1 3200.79,-1206.1"/>
<text text-anchor="middle" x="3339.23" y="-1323.1" font-family="Times,serif" font-size="14.00">&lt;&lt;Struct&gt;&gt;</text>
<text text-anchor="middle" x="3339.23" y="-1306.3" font-family="Times,serif" font-size="14.00">Certificate</text>
<text text-anchor="middle" x="3339.23" y="-1289.5" font-family="Times,serif" font-size="14.00">RecordChaincontractsRecordChainStorage.sol</text>
<polyline fill="none" stroke="black" points="3200.79,-1281.3 3477.67,-1281.3 "/>
<text text-anchor="start" x="3208.79" y="-1264.7" font-family="Times,serif" font-size="14.00">candidateAddress: address</text>
<text text-anchor="start" x="3208.79" y="-1247.9" font-family="Times,serif" font-size="14.00">courseId: bytes32</text>
<text text-anchor="start" x="3208.79" y="-1231.1" font-family="Times,serif" font-size="14.00">score: uint256[]</text>
<text text-anchor="start" x="3208.79" y="-1214.3" font-family="Times,serif" font-size="14.00">issuanceTime: uint256</text>
</g>
<!-- 11&#45;&gt;5 -->
<g id="edge12" class="edge">
<title>11&#45;&gt;5</title>
<path fill="none" stroke="black" d="M3300.08,-1205.87C3290.19,-1190.42 3278.86,-1172.94 3266.6,-1154.17"/>
<polygon fill="black" stroke="black" points="3266.47,-1153.97 3259.83,-1151.14 3259.89,-1143.93 3266.53,-1146.76 3266.47,-1153.97"/>
</g>
<!-- 5&#45;&gt;0 -->
<g id="edge19" class="edge">
<title>5&#45;&gt;0</title>
<path fill="none" stroke="black" stroke-dasharray="5,2" d="M3827.22,-1144.02C3894.98,-1210.8 3912.39,-1285.51 3835.23,-1365.4 3774.46,-1428.31 2486.09,-1431.09 2089.42,-1430.45"/>
<polygon fill="black" stroke="black" points="2089.37,-1426.95 2079.37,-1430.43 2089.36,-1433.95 2089.37,-1426.95"/>
</g>
<!-- 5&#45;&gt;6 -->
<g id="edge13" class="edge">
<title>5&#45;&gt;6</title>
<path fill="none" stroke="black" d="M2366.23,-1144.1C2343.19,-1156.18 2320.47,-1168.3 2298.23,-1180.4 2282,-1189.23 2265.07,-1199.07 2248.84,-1208.93"/>
<polygon fill="black" stroke="black" points="2246.6,-1206.19 2239.9,-1214.4 2250.25,-1212.17 2246.6,-1206.19"/>
</g>
<!-- 5&#45;&gt;7 -->
<g id="edge16" class="edge">
<title>5&#45;&gt;7</title>
<path fill="none" stroke="black" d="M2619.09,-1143.93C2587.79,-1167.57 2558.94,-1189.48 2534.41,-1208.24"/>
<polygon fill="black" stroke="black" points="2532.07,-1205.62 2526.26,-1214.48 2536.33,-1211.18 2532.07,-1205.62"/>
</g>
<!-- 5&#45;&gt;8 -->
<g id="edge17" class="edge">
<title>5&#45;&gt;8</title>
<path fill="none" stroke="black" d="M2828.56,-1143.93C2813.74,-1166.54 2800.09,-1187.57 2788.44,-1205.77"/>
<polygon fill="black" stroke="black" points="2785.31,-1204.17 2782.88,-1214.48 2791.21,-1207.93 2785.31,-1204.17"/>
</g>
<!-- 5&#45;&gt;9 -->
<g id="edge18" class="edge">
<title>5&#45;&gt;9</title>
<path fill="none" stroke="black" d="M3038.04,-1143.93C3038.32,-1165.93 3038.71,-1186.42 3039.2,-1204.28"/>
<polygon fill="black" stroke="black" points="3035.71,-1204.59 3039.51,-1214.48 3042.71,-1204.38 3035.71,-1204.59"/>
</g>
<!-- 5&#45;&gt;10 -->
<g id="edge14" class="edge">
<title>5&#45;&gt;10</title>
<path fill="none" stroke="black" d="M3476.16,-1143.93C3491.34,-1154.69 3506.05,-1165.1 3520.09,-1175.01"/>
<polygon fill="black" stroke="black" points="3518.09,-1177.88 3528.28,-1180.78 3522.13,-1172.16 3518.09,-1177.88"/>
</g>
<!-- 5&#45;&gt;11 -->
<g id="edge15" class="edge">
<title>5&#45;&gt;11</title>
<path fill="none" stroke="black" d="M3247.52,-1143.93C3260.65,-1163.22 3273.1,-1181.36 3284.35,-1197.57"/>
<polygon fill="black" stroke="black" points="3281.54,-1199.66 3290.12,-1205.87 3287.29,-1195.67 3281.54,-1199.66"/>
</g>
<!-- 12 -->
<g id="node13" class="node">
<title>12</title>
<polygon fill="#f2f2f2" stroke="black" points="4639.13,-787.9 4639.13,-871.1 4939.32,-871.1 4939.32,-787.9 4639.13,-787.9"/>
<text text-anchor="middle" x="4789.23" y="-854.5" font-family="Times,serif" font-size="14.00">&lt;&lt;Constant&gt;&gt;</text>
<text text-anchor="middle" x="4789.23" y="-837.7" font-family="Times,serif" font-size="14.00">REWARD</text>
<text text-anchor="middle" x="4789.23" y="-820.9" font-family="Times,serif" font-size="14.00">RecordChaincontractsRecordChainTransaction.sol</text>
<polyline fill="none" stroke="black" points="4639.13,-812.7 4939.32,-812.7 "/>
<text text-anchor="start" x="4647.13" y="-796.1" font-family="Times,serif" font-size="14.00">REWARD: uint256</text>
</g>
<!-- 13 -->
<g id="node14" class="node">
<title>13</title>
<polygon fill="#f2f2f2" stroke="black" points="4514.05,-25.7 4514.05,-452.9 5256.41,-452.9 5256.41,-25.7 4514.05,-25.7"/>
<text text-anchor="middle" x="4885.23" y="-436.3" font-family="Times,serif" font-size="14.00">TransactionRegistry</text>
<text text-anchor="middle" x="4885.23" y="-419.5" font-family="Times,serif" font-size="14.00">RecordChaincontractsRecordChainTransaction.sol</text>
<polyline fill="none" stroke="black" points="4514.05,-411.3 5256.41,-411.3 "/>
<text text-anchor="start" x="4522.05" y="-394.7" font-family="Times,serif" font-size="14.00">Private:</text>
<text text-anchor="start" x="4522.05" y="-377.9" font-family="Times,serif" font-size="14.00"> &#160;&#160;recordAddress: address</text>
<text text-anchor="start" x="4522.05" y="-361.1" font-family="Times,serif" font-size="14.00"> &#160;&#160;transactionId: bytes32[]</text>
<text text-anchor="start" x="4522.05" y="-344.3" font-family="Times,serif" font-size="14.00">Public:</text>
<text text-anchor="start" x="4522.05" y="-327.5" font-family="Times,serif" font-size="14.00"> &#160;&#160;limit: uint256</text>
<text text-anchor="start" x="4522.05" y="-310.7" font-family="Times,serif" font-size="14.00"> &#160;&#160;recordChain: RecordChainStorage</text>
<polyline fill="none" stroke="black" points="4514.05,-302.5 5256.41,-302.5 "/>
<text text-anchor="start" x="4522.05" y="-285.9" font-family="Times,serif" font-size="14.00">Private:</text>
<text text-anchor="start" x="4522.05" y="-269.1" font-family="Times,serif" font-size="14.00"> &#160;&#160;&#160;checkTransaction(_transactionId: bytes32): bool</text>
<text text-anchor="start" x="4522.05" y="-252.3" font-family="Times,serif" font-size="14.00">Public:</text>
<text text-anchor="start" x="4522.05" y="-235.5" font-family="Times,serif" font-size="14.00"> &#160;&#160;&#160;&lt;&lt;payable&gt;&gt; transferBalance(): bool &lt;&lt;onlyOwner&gt;&gt;</text>
<text text-anchor="start" x="4522.05" y="-218.7" font-family="Times,serif" font-size="14.00"> &#160;&#160;&#160;&lt;&lt;event&gt;&gt; NewTransaction(transactionId: bytes32, sender: address, recipient: address)</text>
<text text-anchor="start" x="4522.05" y="-201.9" font-family="Times,serif" font-size="14.00"> &#160;&#160;&#160;&lt;&lt;modifier&gt;&gt; isUser(role: string)</text>
<text text-anchor="start" x="4522.05" y="-185.1" font-family="Times,serif" font-size="14.00"> &#160;&#160;&#160;&lt;&lt;modifier&gt;&gt; isMaxAttempt()</text>
<text text-anchor="start" x="4522.05" y="-168.3" font-family="Times,serif" font-size="14.00"> &#160;&#160;&#160;&lt;&lt;modifier&gt;&gt; minimumPay(_credits: uint256)</text>
<text text-anchor="start" x="4522.05" y="-151.5" font-family="Times,serif" font-size="14.00"> &#160;&#160;&#160;constructor(_recordChainAddress: address, _limit: uint256)</text>
<text text-anchor="start" x="4522.05" y="-134.7" font-family="Times,serif" font-size="14.00"> &#160;&#160;&#160;balance(): uint256 &lt;&lt;onlyOwner&gt;&gt;</text>
<text text-anchor="start" x="4522.05" y="-117.9" font-family="Times,serif" font-size="14.00"> &#160;&#160;&#160;requestBalance(): bool &lt;&lt;onlyOwner&gt;&gt;</text>
<text text-anchor="start" x="4522.05" y="-101.1" font-family="Times,serif" font-size="14.00"> &#160;&#160;&#160;setLimit(_limit: uint256): bool &lt;&lt;onlyOwner&gt;&gt;</text>
<text text-anchor="start" x="4522.05" y="-84.3" font-family="Times,serif" font-size="14.00"> &#160;&#160;&#160;createTransaction(_courseName: string, _credits: uint256, _recipient: address): bool &lt;&lt;minimumPay, isUser, isMaxAttempt&gt;&gt;</text>
<text text-anchor="start" x="4522.05" y="-67.5" font-family="Times,serif" font-size="14.00"> &#160;&#160;&#160;getAllTransaction(): address[] &lt;&lt;onlyOwner&gt;&gt;</text>
<text text-anchor="start" x="4522.05" y="-50.7" font-family="Times,serif" font-size="14.00"> &#160;&#160;&#160;getTransactionTrainer(): address[] &lt;&lt;isUser&gt;&gt;</text>
<text text-anchor="start" x="4522.05" y="-33.9" font-family="Times,serif" font-size="14.00"> &#160;&#160;&#160;getTransactionLearner(): address[] &lt;&lt;isUser&gt;&gt;</text>
</g>
<!-- 13&#45;&gt;2 -->
<g id="edge20" class="edge">
<title>13&#45;&gt;2</title>
<path fill="none" stroke="black" d="M4667.11,-453.07C4580.9,-537.16 4484.82,-630.88 4410.22,-703.65"/>
<polygon fill="none" stroke="black" points="4402.44,-696.57 4388.3,-725.04 4417.1,-711.61 4402.44,-696.57"/>
</g>
<!-- 13&#45;&gt;5 -->
<g id="edge21" class="edge">
<title>13&#45;&gt;5</title>
<path fill="none" stroke="black" d="M4569.59,-452.96C4547.98,-462.72 4526.09,-471.42 4504.23,-478.6 4303.93,-544.41 4238.19,-474.38 4031.23,-514.6 3968.48,-526.79 3904.13,-541.66 3839.82,-558.21"/>
<polygon fill="black" stroke="black" points="3838.72,-554.88 3829.92,-560.77 3840.48,-561.65 3838.72,-554.88"/>
</g>
<!-- 13&#45;&gt;12 -->
<g id="edge22" class="edge">
<title>13&#45;&gt;12</title>
<path fill="none" stroke="black" stroke-dasharray="5,2" d="M4850.5,-453.07C4831.42,-570.01 4809.29,-705.56 4797.55,-777.5"/>
<polygon fill="black" stroke="black" points="4794.05,-777.21 4795.9,-787.64 4800.96,-778.33 4794.05,-777.21"/>
</g>
<!-- 14 -->
<g id="node15" class="node">
<title>14</title>
<polygon fill="#f2f2f2" stroke="black" points="3440.81,-0.5 3440.81,-478.1 4495.65,-478.1 4495.65,-0.5 3440.81,-0.5"/>
<text text-anchor="middle" x="3968.23" y="-461.5" font-family="Times,serif" font-size="14.00">TransactionCourse</text>
<text text-anchor="middle" x="3968.23" y="-444.7" font-family="Times,serif" font-size="14.00">RecordChaincontractsRecordChainTransaction.sol</text>
<polyline fill="none" stroke="black" points="3440.81,-436.5 4495.65,-436.5 "/>
<text text-anchor="start" x="3448.81" y="-419.9" font-family="Times,serif" font-size="14.00">Private:</text>
<text text-anchor="start" x="3448.81" y="-403.1" font-family="Times,serif" font-size="14.00"> &#160;&#160;courseId: bytes32</text>
<text text-anchor="start" x="3448.81" y="-386.3" font-family="Times,serif" font-size="14.00"> &#160;&#160;owner: address</text>
<text text-anchor="start" x="3448.81" y="-369.5" font-family="Times,serif" font-size="14.00"> &#160;&#160;sender: address</text>
<text text-anchor="start" x="3448.81" y="-352.7" font-family="Times,serif" font-size="14.00"> &#160;&#160;recipient: address</text>
<text text-anchor="start" x="3448.81" y="-335.9" font-family="Times,serif" font-size="14.00"> &#160;&#160;isPaid: bool</text>
<text text-anchor="start" x="3448.81" y="-319.1" font-family="Times,serif" font-size="14.00"> &#160;&#160;creationTime: uint256</text>
<text text-anchor="start" x="3448.81" y="-302.3" font-family="Times,serif" font-size="14.00"> &#160;&#160;receivalTime: uint256</text>
<text text-anchor="start" x="3448.81" y="-285.5" font-family="Times,serif" font-size="14.00"> &#160;&#160;credits: uint256</text>
<text text-anchor="start" x="3448.81" y="-268.7" font-family="Times,serif" font-size="14.00"> &#160;&#160;isSentReward: bool</text>
<text text-anchor="start" x="3448.81" y="-251.9" font-family="Times,serif" font-size="14.00">Public:</text>
<text text-anchor="start" x="3448.81" y="-235.1" font-family="Times,serif" font-size="14.00"> &#160;&#160;isRequested: bool</text>
<text text-anchor="start" x="3448.81" y="-218.3" font-family="Times,serif" font-size="14.00"> &#160;&#160;recordChain: RecordChainStorage</text>
<polyline fill="none" stroke="black" points="3440.81,-210.1 4495.65,-210.1 "/>
<text text-anchor="start" x="3448.81" y="-193.5" font-family="Times,serif" font-size="14.00">Private:</text>
<text text-anchor="start" x="3448.81" y="-176.7" font-family="Times,serif" font-size="14.00"> &#160;&#160;&#160;checkCertified(): bool</text>
<text text-anchor="start" x="3448.81" y="-159.9" font-family="Times,serif" font-size="14.00">External:</text>
<text text-anchor="start" x="3448.81" y="-143.1" font-family="Times,serif" font-size="14.00"> &#160;&#160;&#160;&lt;&lt;payable&gt;&gt; sendCredit() &lt;&lt;isAlreadyPaid&gt;&gt;</text>
<text text-anchor="start" x="3448.81" y="-126.3" font-family="Times,serif" font-size="14.00"> &#160;&#160;&#160;&lt;&lt;payable&gt;&gt; requestCredit() &lt;&lt;isAlreadyPaid, isAlreadyRequest&gt;&gt;</text>
<text text-anchor="start" x="3448.81" y="-109.5" font-family="Times,serif" font-size="14.00"> &#160;&#160;&#160;&lt;&lt;payable&gt;&gt; payCourse() &lt;&lt;isAlreadyPaid&gt;&gt;</text>
<text text-anchor="start" x="3448.81" y="-92.7" font-family="Times,serif" font-size="14.00">Public:</text>
<text text-anchor="start" x="3448.81" y="-75.9" font-family="Times,serif" font-size="14.00"> &#160;&#160;&#160;&lt;&lt;modifier&gt;&gt; isAlreadyPaid()</text>
<text text-anchor="start" x="3448.81" y="-59.1" font-family="Times,serif" font-size="14.00"> &#160;&#160;&#160;&lt;&lt;modifier&gt;&gt; isAlreadyRequest()</text>
<text text-anchor="start" x="3448.81" y="-42.3" font-family="Times,serif" font-size="14.00"> &#160;&#160;&#160;constructor(_recordChainAddress: address, _courseId: bytes32, _owner: address, _sender: address, _recipient: address, _isPaid: bool, _creationTime: uint256, _receivalTime: uint256)</text>
<text text-anchor="start" x="3448.81" y="-25.5" font-family="Times,serif" font-size="14.00"> &#160;&#160;&#160;getBasicInformation(): (bytes32, address, address, address, bool, uint256, uint256)</text>
<text text-anchor="start" x="3448.81" y="-8.7" font-family="Times,serif" font-size="14.00"> &#160;&#160;&#160;balance(): uint256</text>
</g>
<!-- 14&#45;&gt;5 -->
<g id="edge23" class="edge">
<title>14&#45;&gt;5</title>
<path fill="none" stroke="black" d="M3594.4,-478.27C3578.2,-488.58 3561.86,-498.99 3545.44,-509.44"/>
<polygon fill="black" stroke="black" points="3543.41,-506.58 3536.85,-514.91 3547.17,-512.49 3543.41,-506.58"/>
</g>
<!-- 14&#45;&gt;12 -->
<g id="edge24" class="edge">
<title>14&#45;&gt;12</title>
<path fill="none" stroke="black" stroke-dasharray="5,2" d="M4483.96,-478.19C4500.93,-489.94 4517.41,-502.08 4533.23,-514.6 4630.74,-591.74 4715.67,-712.06 4758.89,-779.12"/>
<polygon fill="black" stroke="black" points="4756.12,-781.28 4764.45,-787.82 4762.01,-777.51 4756.12,-781.28"/>
</g>
<!-- 15 -->
<g id="node16" class="node">
<title>15</title>
<polygon fill="#f2f2f2" stroke="black" points="2665.85,-0.5 2665.85,-478.1 3422.6,-478.1 3422.6,-0.5 2665.85,-0.5"/>
<text text-anchor="middle" x="3044.23" y="-461.5" font-family="Times,serif" font-size="14.00">RecordChainUser</text>
<text text-anchor="middle" x="3044.23" y="-444.7" font-family="Times,serif" font-size="14.00">RecordChaincontractsRecordChainUser.sol</text>
<polyline fill="none" stroke="black" points="2665.85,-436.5 3422.6,-436.5 "/>
<text text-anchor="start" x="2673.85" y="-419.9" font-family="Times,serif" font-size="14.00">Private:</text>
<text text-anchor="start" x="2673.85" y="-403.1" font-family="Times,serif" font-size="14.00"> &#160;&#160;instituteId: bytes32[]</text>
<text text-anchor="start" x="2673.85" y="-386.3" font-family="Times,serif" font-size="14.00">Public:</text>
<text text-anchor="start" x="2673.85" y="-369.5" font-family="Times,serif" font-size="14.00"> &#160;&#160;recordChain: RecordChainStorage</text>
<polyline fill="none" stroke="black" points="2665.85,-361.3 3422.6,-361.3 "/>
<text text-anchor="start" x="2673.85" y="-344.7" font-family="Times,serif" font-size="14.00">Private:</text>
<text text-anchor="start" x="2673.85" y="-327.9" font-family="Times,serif" font-size="14.00"> &#160;&#160;&#160;isTrainer(_userAddress: address): bool</text>
<text text-anchor="start" x="2673.85" y="-311.1" font-family="Times,serif" font-size="14.00"> &#160;&#160;&#160;checkInstitute(_name: string): bool</text>
<text text-anchor="start" x="2673.85" y="-294.3" font-family="Times,serif" font-size="14.00">Public:</text>
<text text-anchor="start" x="2673.85" y="-277.5" font-family="Times,serif" font-size="14.00"> &#160;&#160;&#160;&lt;&lt;event&gt;&gt; UserUpdate(user: address, name: string, phone: string, role: string)</text>
<text text-anchor="start" x="2673.85" y="-260.7" font-family="Times,serif" font-size="14.00"> &#160;&#160;&#160;&lt;&lt;event&gt;&gt; TrainerUpdate(user: address, Institute: string)</text>
<text text-anchor="start" x="2673.85" y="-243.9" font-family="Times,serif" font-size="14.00"> &#160;&#160;&#160;&lt;&lt;event&gt;&gt; InstituteUpdate(id: bytes32, name: string)</text>
<text text-anchor="start" x="2673.85" y="-227.1" font-family="Times,serif" font-size="14.00"> &#160;&#160;&#160;&lt;&lt;modifier&gt;&gt; checkRole(_role: string)</text>
<text text-anchor="start" x="2673.85" y="-210.3" font-family="Times,serif" font-size="14.00"> &#160;&#160;&#160;&lt;&lt;modifier&gt;&gt; checkAddress(_userAddress: address)</text>
<text text-anchor="start" x="2673.85" y="-193.5" font-family="Times,serif" font-size="14.00"> &#160;&#160;&#160;constructor(_recordChainAddress: address)</text>
<text text-anchor="start" x="2673.85" y="-176.7" font-family="Times,serif" font-size="14.00"> &#160;&#160;&#160;updateUser(_userAddress: address, _name: string, _phone: string, _role: string): bool &lt;&lt;onlyOwner, checkAddress, checkRole&gt;&gt;</text>
<text text-anchor="start" x="2673.85" y="-159.9" font-family="Times,serif" font-size="14.00"> &#160;&#160;&#160;getUser(_userAddress: address): (name: string, phone: string, role: bytes32) &lt;&lt;onlyOwner, checkAddress&gt;&gt;</text>
<text text-anchor="start" x="2673.85" y="-143.1" font-family="Times,serif" font-size="14.00"> &#160;&#160;&#160;createInstitute(_name: string, _category: string): bool &lt;&lt;onlyOwner&gt;&gt;</text>
<text text-anchor="start" x="2673.85" y="-126.3" font-family="Times,serif" font-size="14.00"> &#160;&#160;&#160;updateTrainer(_userAddress: address, _institute: string): bool &lt;&lt;onlyOwner, checkAddress&gt;&gt;</text>
<text text-anchor="start" x="2673.85" y="-109.5" font-family="Times,serif" font-size="14.00"> &#160;&#160;&#160;viewProfile(): (name: string, phone: string, role: bytes32)</text>
<text text-anchor="start" x="2673.85" y="-92.7" font-family="Times,serif" font-size="14.00"> &#160;&#160;&#160;getInstituteIds(): bytes32[]</text>
<text text-anchor="start" x="2673.85" y="-75.9" font-family="Times,serif" font-size="14.00"> &#160;&#160;&#160;getAllInstitute(): (name: string[], category: string[])</text>
<text text-anchor="start" x="2673.85" y="-59.1" font-family="Times,serif" font-size="14.00"> &#160;&#160;&#160;getInstituteId(_name: string): (name: string, category: string, trainer: address[])</text>
<text text-anchor="start" x="2673.85" y="-42.3" font-family="Times,serif" font-size="14.00"> &#160;&#160;&#160;getTrainer(_userAddress: address): (institute: string, courseId: bytes32[], transactionId: bytes32[])</text>
<text text-anchor="start" x="2673.85" y="-25.5" font-family="Times,serif" font-size="14.00"> &#160;&#160;&#160;verifyTrainer(_name: string, _userAddress: address): bool</text>
<text text-anchor="start" x="2673.85" y="-8.7" font-family="Times,serif" font-size="14.00"> &#160;&#160;&#160;getLearner(_userAddress: address): (courseId: bytes32[], transactionId: bytes32[], certificateId: bytes32[])</text>
</g>
<!-- 15&#45;&gt;2 -->
<g id="edge25" class="edge">
<title>15&#45;&gt;2</title>
<path fill="none" stroke="black" d="M3422.66,-475.34C3425.85,-476.46 3429.04,-477.54 3432.23,-478.6 3604.63,-535.64 3668.79,-451.93 3839.23,-514.6 3954.02,-556.81 4066.24,-636.86 4149.02,-705.56"/>
<polygon fill="none" stroke="black" points="4142.41,-713.72 4172.11,-725.06 4155.96,-697.68 4142.41,-713.72"/>
</g>
<!-- 15&#45;&gt;5 -->
<g id="edge26" class="edge">
<title>15&#45;&gt;5</title>
<path fill="none" stroke="black" d="M3044.23,-478.27C3044.23,-487.07 3044.23,-495.94 3044.23,-504.84"/>
<polygon fill="black" stroke="black" points="3040.73,-504.91 3044.23,-514.91 3047.73,-504.91 3040.73,-504.91"/>
</g>
</g>
</svg>
